<?xml version="1.0" encoding="UTF-8" standalone="no"?>
<!DOCTYPE svg PUBLIC "-//W3C//DTD SVG 1.1//EN" "http://www.w3.org/Graphics/SVG/1.1/DTD/svg11.dtd">
<svg width="100%" height="100%" viewBox="0 0 50 25" version="1.1" xmlns="http://www.w3.org/2000/svg" xmlns:xlink="http://www.w3.org/1999/xlink" xml:space="preserve" xmlns:serif="http://www.serif.com/" style="fill-rule:evenodd;clip-rule:evenodd;stroke-linecap:square;">
    <g id="Mountain" transform="matrix(0.602818,0,0,0.602818,8.28209,-3.49592)">
        <g transform="matrix(1.76454,0,0,1.87762,-3.66378,-30.8962)">
            <path d="M3.795,39.584L8.488,21.627L15.24,34.393L19.926,24.225L23.258,29.141L26.856,21.591L31.791,39.566L3.795,39.584Z" style="fill:rgb(0,9,2);"/>
        </g>
        <g transform="matrix(1.76454,0,0,1.87762,-3.66378,-30.8962)">
            <path d="M3.795,39.584L8.488,21.627L15.24,34.393L19.926,24.225L23.258,29.141L26.856,21.591L31.791,39.566L3.795,39.584ZM4.994,38.7L30.578,38.683C30.578,38.683 26.616,24.255 26.616,24.255L23.403,30.999L20.084,26.103L15.298,36.489L8.789,24.181L4.994,38.7Z" style="fill:rgb(0,53,10);"/>
        </g>
        <g transform="matrix(1,0,0,1,-0.0308343,0.494368)">
            <path d="M10.382,42.093L4.072,42.106L11.61,11.486L23.292,35.045L31.676,15.803L37.544,25.051L43.573,11.558L45.072,17.477" style="fill:none;stroke:rgb(37,126,8);stroke-width:1.66px;"/>
        </g>
    </g>
</svg>
